<svg width="294" height="77" viewBox="0 0 294 77" fill="none" xmlns="http://www.w3.org/2000/svg">
<path fill-rule="evenodd" clip-rule="evenodd" d="M89.1183 58.6211C84.6946 58.6211 80.9634 61.3026 79.8042 64.9661C79.5616 65.733 79.4316 66.543 79.4316 67.3803C79.4316 72.2181 83.7687 76.1397 89.1183 76.1397C94.4681 76.1397 98.805 72.2181 98.805 67.3803C98.805 66.2558 98.5707 65.1807 98.1437 64.1928C96.7338 60.9313 93.2245 58.6211 89.1183 58.6211Z" fill="#8399B4" stroke="#2B2A29" stroke-width="0.156624" stroke-miterlimit="22.9256"/>
<path fill-rule="evenodd" clip-rule="evenodd" d="M89.1183 58.6211C84.6946 58.6211 80.9634 61.3026 79.8042 64.9661C79.5616 65.733 79.4316 66.543 79.4316 67.3803C79.4316 72.2181 83.7687 76.1397 89.1183 76.1397C94.4681 76.1397 98.805 72.2181 98.805 67.3803C98.805 66.2558 98.5707 65.1807 98.1437 64.1928C96.7338 60.9313 93.2245 58.6211 89.1183 58.6211Z" fill="#8399B4" stroke="#2B2A29" stroke-width="0.156624" stroke-miterlimit="22.9256"/>
<path fill-rule="evenodd" clip-rule="evenodd" d="M89.1183 58.6211C84.6946 58.6211 80.9634 61.3026 79.8042 64.9661C79.5616 65.733 79.4316 66.543 79.4316 67.3803C79.4316 72.2181 83.7687 76.1397 89.1183 76.1397C94.4681 76.1397 98.805 72.2181 98.805 67.3803C98.805 66.2558 98.5707 65.1807 98.1437 64.1928C96.7338 60.9313 93.2245 58.6211 89.1183 58.6211Z" fill="#8399B4" stroke="#2B2A29" stroke-width="0.156624" stroke-miterlimit="22.9256"/>
<path d="M27.3692 40.826L20.4922 40.6885" stroke="#2B2A29" stroke-width="0.0783121" stroke-miterlimit="22.9256"/>
<path d="M29.9378 44.183L16.4238 43.8975" stroke="#2B2A29" stroke-width="0.0783121" stroke-miterlimit="22.9256"/>
<path d="M16.4238 43.8986L20.4954 40.6885" stroke="#2B2A29" stroke-width="0.0783121" stroke-miterlimit="22.9256"/>
<path d="M27.8438 40.666L29.8014 43.861" stroke="#2B2A29" stroke-width="0.0783121" stroke-miterlimit="22.9256"/>
<path d="M16.3477 9.66309L24.4858 9.98321" stroke="#2B2A29" stroke-width="0.0783121" stroke-miterlimit="22.9256"/>
<path d="M16.3477 9.66309L20.5738 13.2851L20.7095 9.83472" stroke="#2B2A29" stroke-width="0.0783121" stroke-miterlimit="22.9256"/>
<path fill-rule="evenodd" clip-rule="evenodd" d="M27.8045 42.7652C27.5916 42.1824 27.6023 42.713 27.5358 42.0554C27.4681 41.3865 27.3895 42.1917 27.3724 40.826L20.4954 40.6885L16.4238 43.8986L29.9378 44.1842C29.9089 44.0714 29.8638 43.9623 29.8013 43.8603L29.7977 43.8545C29.5697 43.4874 29.1163 43.2161 28.3932 43.2161C28.2499 43.2161 28.065 43.2064 27.8626 43.2057C27.8472 42.9867 27.8277 42.8286 27.8045 42.7652ZM21.0404 41.311C21.0583 41.4893 18.8999 42.6939 18.9126 42.9033L18.8694 42.8808L21.0404 41.311Z" fill="#686868" stroke="#686868" stroke-width="0.156624" stroke-miterlimit="22.9256"/>
<path fill-rule="evenodd" clip-rule="evenodd" d="M20.6433 11.5188L20.7095 9.83472L16.3477 9.66309L20.5738 13.2851L20.6433 11.5188Z" fill="#686868" stroke="#686868" stroke-width="0.156624" stroke-miterlimit="22.9256"/>
<path fill-rule="evenodd" clip-rule="evenodd" d="M4.36604 3.00922L1.39062 0.835938L16.2673 0.908319V3.29901L4.36604 3.00922Z" fill="#686868" stroke="#686868" stroke-width="0.0783121" stroke-miterlimit="22.9256"/>
<path fill-rule="evenodd" clip-rule="evenodd" d="M22.2188 53.3353L20.9661 50.9121L4.44519 50.5557L1 52.8363L22.2188 53.3353Z" fill="#686868" stroke="#686868" stroke-width="0.0783121" stroke-miterlimit="22.9256"/>
<path fill-rule="evenodd" clip-rule="evenodd" d="M43.6094 64.4937C42.1497 61.443 38.7354 59.3027 34.7562 59.3027C31.0452 59.3027 27.8257 61.1641 26.2245 63.8895C25.5358 65.0617 25.1465 66.3941 25.1465 67.8068C25.1465 72.5034 29.4488 76.3108 34.7562 76.3108C40.0635 76.3108 44.3658 72.5034 44.3658 67.8068C44.3658 66.6315 44.0965 65.5118 43.6094 64.4937Z" fill="#D7ECF0" stroke="#2B2A29" stroke-width="0.156624" stroke-miterlimit="22.9256"/>
<path fill-rule="evenodd" clip-rule="evenodd" d="M43.6094 64.4937C42.1497 61.443 38.7354 59.3027 34.7562 59.3027C31.0452 59.3027 27.8257 61.1641 26.2245 63.8895C25.5358 65.0617 25.1465 66.3941 25.1465 67.8068C25.1465 72.5034 29.4488 76.3108 34.7562 76.3108C40.0635 76.3108 44.3658 72.5034 44.3658 67.8068C44.3658 66.6315 44.0965 65.5118 43.6094 64.4937Z" fill="#8399B4" stroke="#2B2A29" stroke-width="0.156624" stroke-miterlimit="22.9256"/>
<path d="M9.92969 52.0353L80.4535 52.6196L80.1074 2.27514L15.9659 2.06738" stroke="#686868" stroke-width="1.56624" stroke-miterlimit="22.9256"/>
<path d="M79.998 15.1832L95.0503 15.083L103.724 25.115L103.384 64.4072" stroke="#686868" stroke-width="0.587341" stroke-miterlimit="22.9256"/>
<path d="M89.1183 76.1408C94.4682 76.1408 98.805 72.2191 98.805 67.3814C98.805 62.5438 94.4682 58.6221 89.1183 58.6221C83.7685 58.6221 79.4316 62.5438 79.4316 67.3814C79.4316 72.2191 83.7685 76.1408 89.1183 76.1408Z" stroke="#2B2A29" stroke-width="0.587341" stroke-miterlimit="22.9256"/>
<path d="M34.7562 76.3108C40.0634 76.3108 44.3658 72.5034 44.3658 67.8068C44.3658 63.1101 40.0634 59.3027 34.7562 59.3027C29.4489 59.3027 25.1465 63.1101 25.1465 67.8068C25.1465 72.5034 29.4489 76.3108 34.7562 76.3108Z" stroke="#2B2A29" stroke-width="0.587341" stroke-miterlimit="22.9256"/>
<path d="M103.39 64.4054L98.1445 64.1943" stroke="#686868" stroke-width="0.587341" stroke-miterlimit="22.9256"/>
<path d="M79.8005 64.9697L43.6094 64.4961" stroke="#686868" stroke-width="0.587341" stroke-miterlimit="22.9256"/>
<path d="M36.8029 28.5701C36.5855 32.1893 35.5437 35.058 33.6656 37.1726C31.918 39.1402 29.7203 40.2166 27.0788 40.4067C27.0816 40.4416 27.0834 40.4801 27.0839 40.5229C27.101 41.8885 27.1796 41.0833 27.2473 41.7522C27.3138 42.4098 27.3031 41.8793 27.516 42.462C27.5392 42.5254 27.5587 42.6836 27.5741 42.9025C27.7765 42.9033 27.9614 42.9129 28.1047 42.9129C29.0317 42.9129 29.5156 43.3588 29.6493 43.881C33.1251 43.2373 35.8359 41.6309 37.7856 39.0639C40.1317 35.9751 41.3013 32.2481 41.4296 27.8662L36.8601 27.7767C36.9053 28.0441 36.8834 28.3195 36.8029 28.5701ZM41.4269 26.1129C41.2445 20.272 39.3787 15.1966 34.3641 11.7932C31.9705 10.1688 29.114 9.36035 25.8022 9.36035C25.2539 9.36035 24.7195 9.38157 24.1993 9.42399C24.1997 10.023 24.1682 10.6775 24.1925 10.7379C24.278 10.9507 24.5326 10.852 24.5326 11.949C24.5326 12.3743 24.6963 12.2911 24.7027 12.7995C24.7058 13.0502 24.7147 13.2081 24.7269 13.3129C25.0922 13.2832 25.469 13.2685 25.8571 13.2685C29.1453 13.2685 31.7232 14.2612 33.595 16.2428C35.4664 18.2241 36.4986 20.9043 36.6791 24.2866H36.6645C36.7353 24.8234 36.6633 25.3941 36.7005 25.4963C36.7448 25.6173 36.767 25.804 36.777 26.0156C37.0267 25.9697 37.3076 25.9837 37.5614 26.0224L41.4269 26.1129ZM18.5809 42.5776L18.6241 42.6001C18.6114 42.3907 18.6009 42.1892 18.583 42.0109L18.5809 42.5776ZM43.8991 43.6391L49.2061 29.805L55.2821 29.9307C55.6225 29.9825 55.9088 29.9243 56.1354 29.7957H63.3366C63.2865 29.9803 63.2942 30.1853 63.3728 30.3858L63.7352 31.453C63.8395 31.8571 63.9471 31.7432 64.0654 32.3238C64.1124 32.5547 64.2649 32.7014 64.4458 33.4214H52.2882L48.6312 43.6391H43.8991ZM65.068 29.7957H65.0878L61.5721 20.4492C60.5047 17.6112 59.7121 15.2618 59.1549 13.4098C58.6919 15.6071 58.0897 17.7719 57.295 19.8998L54.6812 26.8977C53.2808 26.8803 50.9363 26.8475 50.2981 26.9584L56.8321 9.9254H61.7369L75.4625 43.6391H70.385L66.6695 33.9053C66.6678 33.7972 66.6459 33.6801 66.6002 33.555L65.8869 31.9884C65.8285 31.8801 65.8025 31.5056 65.579 31.1388C65.4026 30.8494 65.4419 30.5302 65.0964 29.8511L65.068 29.7957Z" fill="#686868"/>
<path d="M28.3339 11.6844L20.3965 11.5156" stroke="#686868" stroke-width="2.34936" stroke-miterlimit="22.9256"/>
<path d="M23.7676 24.9424L37.7994 25.0274" stroke="#686868" stroke-width="1.56624" stroke-miterlimit="22.9256"/>
<path d="M25.0488 29.1562L38.0602 29.4964" stroke="#686868" stroke-width="1.56624" stroke-miterlimit="22.9256"/>
<path d="M26.2568 62.9297L26.2305 63.8907" stroke="#2B2A29" stroke-width="0.0783121" stroke-miterlimit="22.9256"/>
<path fill-rule="evenodd" clip-rule="evenodd" d="M34.7562 59.3027C31.0452 59.3027 27.8257 61.1641 26.2245 63.8895C25.5358 65.0617 25.1465 66.3941 25.1465 67.8068C25.1465 72.5034 29.4488 76.3108 34.7562 76.3108C40.0635 76.3108 44.3658 72.5034 44.3658 67.8068C44.3658 66.6315 44.0965 65.512 43.6094 64.4937C42.1497 61.4431 38.7354 59.3027 34.7562 59.3027Z" fill="white" stroke="#2B2A29" stroke-width="0.156624" stroke-miterlimit="22.9256"/>
<path fill-rule="evenodd" clip-rule="evenodd" d="M79.8042 64.9671C79.5616 65.734 79.4316 66.5439 79.4316 67.3813C79.4316 72.2191 83.7687 76.1406 89.1183 76.1406C94.4681 76.1406 98.805 72.2191 98.805 67.3813C98.805 66.2567 98.5707 65.1815 98.1437 64.1937C96.734 60.9323 93.2245 58.6221 89.1183 58.6221C84.6948 58.6221 80.9634 61.3035 79.8042 64.9671Z" fill="white" stroke="#2B2A29" stroke-width="0.156624" stroke-miterlimit="22.9256"/>
<path d="M61.8125 30.7959L66.4618 42.9239" stroke="#686868" stroke-width="2.34936" stroke-miterlimit="22.9256"/>
<path d="M64.2564 37.3922L63.4707 37.1455" stroke="#686868" stroke-width="0.0783121" stroke-miterlimit="22.9256"/>
<path fill-rule="evenodd" clip-rule="evenodd" d="M79.8042 64.9671C79.5616 65.734 79.4316 66.5439 79.4316 67.3813C79.4316 72.2191 83.7687 76.1406 89.1183 76.1406C94.4681 76.1406 98.805 72.2191 98.805 67.3813C98.805 66.2567 98.5707 65.1815 98.1437 64.1937C96.734 60.9323 93.2245 58.6221 89.1183 58.6221C84.6948 58.6221 80.9634 61.3035 79.8042 64.9671Z" fill="white" stroke="#686868" stroke-width="1.56624" stroke-miterlimit="22.9256"/>
<path d="M130.867 22.8533H124.037V21.4283H130.808C130.683 19.7773 129.999 18.467 128.754 17.4974C127.516 16.5212 126.143 16.0331 124.636 16.0331C122.461 16.0331 120.738 16.8652 119.467 18.5292L118.317 17.6546C118.973 16.7112 119.854 15.9676 120.961 15.4238C122.075 14.88 123.306 14.6081 124.656 14.6081C126.87 14.6081 128.721 15.3288 130.208 16.7702C131.702 18.2115 132.449 19.9935 132.449 22.1162C132.449 24.2586 131.742 26.0733 130.326 27.5605C128.918 29.0477 127.021 29.7913 124.636 29.7913C121.937 29.7913 119.831 28.8315 118.317 26.9119L119.467 26.0471C120.817 27.6326 122.507 28.4253 124.538 28.4253C126.091 28.4253 127.467 27.9733 128.666 27.0692C129.871 26.1585 130.605 24.7532 130.867 22.8533ZM142.728 24.2782H136.518V29.4277H135.132V18.7356H136.518V22.981H142.728V18.7356H144.104V29.4277H142.728V24.2782ZM156.182 25.8801L157.342 26.4894C156.962 27.2362 156.523 27.839 156.025 28.2976C155.527 28.7562 154.967 29.1067 154.344 29.3491C153.722 29.585 153.018 29.7029 152.231 29.7029C150.489 29.7029 149.126 29.1329 148.143 27.9929C147.161 26.8464 146.669 25.5525 146.669 24.1112C146.669 22.755 147.085 21.5462 147.917 20.4849C148.972 19.1353 150.384 18.4605 152.153 18.4605C153.974 18.4605 155.429 19.1516 156.516 20.534C157.289 21.5102 157.682 22.7288 157.695 24.1898H148.084C148.111 25.4346 148.507 26.4566 149.273 27.2559C150.04 28.0486 150.987 28.445 152.114 28.445C152.657 28.445 153.185 28.35 153.696 28.16C154.213 27.97 154.652 27.7178 155.013 27.4033C155.373 27.0888 155.763 26.5811 156.182 25.8801ZM156.182 23.0007C155.999 22.2669 155.73 21.6805 155.376 21.2416C155.029 20.8026 154.567 20.4488 153.991 20.1802C153.414 19.9116 152.808 19.7773 152.172 19.7773C151.124 19.7773 150.223 20.1147 149.47 20.7895C148.92 21.2809 148.504 22.0179 148.222 23.0007H156.182ZM160.29 18.7356H161.656V20.7011C162.2 19.9542 162.825 19.394 163.533 19.0206C164.24 18.6472 165.03 18.4605 165.901 18.4605C167.421 18.4605 168.722 19.0075 169.803 20.1016C170.884 21.1957 171.424 22.5126 171.424 24.0522C171.424 25.6246 170.887 26.9611 169.813 28.0617C168.745 29.1558 167.454 29.7029 165.941 29.7029C165.089 29.7029 164.306 29.526 163.592 29.1722C162.878 28.8184 162.232 28.291 161.656 27.59V33.339H160.29V18.7356ZM165.793 19.7871C164.601 19.7871 163.595 20.2032 162.776 21.0352C161.964 21.8673 161.558 22.9024 161.558 24.1406C161.558 24.953 161.738 25.6835 162.098 26.3321C162.465 26.9807 162.986 27.495 163.661 27.875C164.342 28.255 165.059 28.445 165.813 28.445C166.553 28.445 167.248 28.255 167.896 27.875C168.551 27.4885 169.072 26.9513 169.459 26.2633C169.845 25.5754 170.039 24.8548 170.039 24.1013C170.039 23.3414 169.845 22.6207 169.459 21.9393C169.079 21.258 168.564 20.7306 167.916 20.3571C167.267 19.9771 166.56 19.7871 165.793 19.7871ZM175.375 19.9444V29.4277H174.009V18.7356H179.414V19.9444H175.375ZM186.342 18.4605C187.987 18.4605 189.349 19.0566 190.43 20.249C191.413 21.3366 191.904 22.624 191.904 24.1112C191.904 25.6049 191.383 26.9119 190.342 28.0323C189.307 29.146 187.973 29.7029 186.342 29.7029C184.704 29.7029 183.364 29.146 182.323 28.0323C181.288 26.9119 180.77 25.6049 180.77 24.1112C180.77 22.6305 181.261 21.3464 182.244 20.2588C183.325 19.0599 184.691 18.4605 186.342 18.4605ZM186.342 19.8068C185.202 19.8068 184.223 20.2294 183.404 21.0745C182.585 21.9197 182.175 22.9417 182.175 24.1406C182.175 24.9137 182.362 25.6344 182.735 26.3026C183.109 26.9709 183.613 27.4885 184.249 27.8554C184.884 28.2157 185.582 28.3959 186.342 28.3959C187.102 28.3959 187.8 28.2157 188.435 27.8554C189.071 27.4885 189.575 26.9709 189.949 26.3026C190.322 25.6344 190.509 24.9137 190.509 24.1406C190.509 22.9417 190.096 21.9197 189.271 21.0745C188.452 20.2294 187.475 19.8068 186.342 19.8068ZM124.892 39.9718L131.633 54.4277H130.081L127.811 49.6713H121.58L119.32 54.4277H117.708L124.538 39.9718H124.892ZM124.715 43.0379L122.229 48.2758H127.172L124.715 43.0379ZM136.763 54.4277H133.658V43.7356H136.714C137.88 43.7356 138.719 44.0042 139.23 44.5415C139.747 45.0787 140.006 45.7076 140.006 46.4283C140.006 47.5159 139.528 48.2529 138.571 48.6394C139.96 49.1308 140.655 50.0775 140.655 51.4795C140.655 53.445 139.358 54.4277 136.763 54.4277ZM135.043 44.9247V48.266H135.938C136.75 48.266 137.281 48.2333 137.53 48.1677C137.779 48.1022 138.011 47.9417 138.228 47.6862C138.45 47.4241 138.562 47.0802 138.562 46.6543C138.562 46.2088 138.447 45.8354 138.218 45.534C137.988 45.2326 137.746 45.0558 137.49 45.0033C137.242 44.9509 136.724 44.9247 135.938 44.9247H135.043ZM135.043 49.5239V53.2681H136.518C137.212 53.2681 137.707 53.2255 138.002 53.1404C138.303 53.0486 138.558 52.8554 138.768 52.5605C138.984 52.2657 139.092 51.8923 139.092 51.4402C139.092 50.8571 138.909 50.392 138.542 50.0448C138.175 49.6975 137.69 49.5239 137.088 49.5239H135.043ZM141.873 43.7356H148.91V44.9247H146.08V54.4277H144.694V44.9247H141.873V43.7356ZM155.838 43.4605C157.483 43.4605 158.845 44.0566 159.926 45.249C160.909 46.3366 161.4 47.624 161.4 49.1112C161.4 50.6049 160.879 51.9119 159.838 53.0323C158.803 54.146 157.469 54.7029 155.838 54.7029C154.2 54.7029 152.86 54.146 151.819 53.0323C150.784 51.9119 150.266 50.6049 150.266 49.1112C150.266 47.6305 150.757 46.3464 151.74 45.2588C152.821 44.0599 154.187 43.4605 155.838 43.4605ZM155.838 44.8068C154.698 44.8068 153.719 45.2294 152.9 46.0745C152.081 46.9197 151.671 47.9417 151.671 49.1406C151.671 49.9137 151.858 50.6344 152.231 51.3026C152.605 51.9709 153.109 52.4885 153.745 52.8554C154.38 53.2157 155.078 53.3959 155.838 53.3959C156.598 53.3959 157.296 53.2157 157.931 52.8554C158.567 52.4885 159.071 51.9709 159.445 51.3026C159.818 50.6344 160.005 49.9137 160.005 49.1406C160.005 47.9417 159.592 46.9197 158.767 46.0745C157.948 45.2294 156.971 44.8068 155.838 44.8068ZM175.571 43.7356H175.964L179.591 54.4277H178.156L175.512 46.5561L171.405 54.4277H171.149L167.031 46.5561L164.398 54.4277H162.963L166.609 43.7356H166.982L171.287 52.0987L175.571 43.7356ZM192.307 43.7356V54.4277H190.951V52.59C190.375 53.291 189.726 53.8184 189.005 54.1722C188.291 54.526 187.508 54.7029 186.657 54.7029C185.143 54.7029 183.849 54.1558 182.775 53.0617C181.707 51.9611 181.173 50.6246 181.173 49.0522C181.173 47.5126 181.713 46.1957 182.794 45.1016C183.875 44.0075 185.176 43.4605 186.696 43.4605C187.574 43.4605 188.366 43.6472 189.074 44.0206C189.788 44.394 190.414 44.9542 190.951 45.7011V43.7356H192.307ZM186.804 44.7871C186.037 44.7871 185.33 44.9771 184.681 45.3571C184.033 45.7306 183.515 46.258 183.129 46.9393C182.749 47.6207 182.559 48.3414 182.559 49.1013C182.559 49.8548 182.752 50.5754 183.138 51.2633C183.525 51.9513 184.042 52.4885 184.691 52.875C185.346 53.255 186.047 53.445 186.794 53.445C187.548 53.445 188.262 53.255 188.936 52.875C189.611 52.495 190.129 51.9807 190.489 51.3321C190.856 50.6835 191.04 49.953 191.04 49.1406C191.04 47.9024 190.63 46.8673 189.811 46.0352C188.999 45.2032 187.996 44.7871 186.804 44.7871ZM194.214 43.7356H201.25V44.9247H198.42V54.4277H197.034V44.9247H194.214V43.7356ZM204.493 43.7356V51.6466L212.345 43.7356H212.453V54.4277H211.077V46.5855L203.284 54.4277H203.117V43.7356H204.493ZM215.519 43.7356H216.905V48.2365L221.848 43.7356H223.764L218.35 48.6296L224.197 54.4277H222.251L217.337 49.4846L216.905 49.8679V54.4277H215.519V43.7356ZM236.275 43.7356V54.4277H234.918V52.59C234.342 53.291 233.693 53.8184 232.973 54.1722C232.259 54.526 231.476 54.7029 230.624 54.7029C229.111 54.7029 227.817 54.1558 226.742 53.0617C225.674 51.9611 225.14 50.6246 225.14 49.0522C225.14 47.5126 225.681 46.1957 226.762 45.1016C227.843 44.0075 229.143 43.4605 230.663 43.4605C231.541 43.4605 232.334 43.6472 233.041 44.0206C233.756 44.394 234.381 44.9542 234.918 45.7011V43.7356H236.275ZM230.771 44.7871C230.005 44.7871 229.297 44.9771 228.649 45.3571C228 45.7306 227.482 46.258 227.096 46.9393C226.716 47.6207 226.526 48.3414 226.526 49.1013C226.526 49.8548 226.719 50.5754 227.106 51.2633C227.492 51.9513 228.01 52.4885 228.658 52.875C229.314 53.255 230.015 53.445 230.762 53.445C231.515 53.445 232.229 53.255 232.904 52.875C233.579 52.495 234.096 51.9807 234.457 51.3321C234.823 50.6835 235.007 49.953 235.007 49.1406C235.007 47.9024 234.597 46.8673 233.779 46.0352C232.966 45.2032 231.964 44.7871 230.771 44.7871Z" fill="#686868"/>
<path fill-rule="evenodd" clip-rule="evenodd" d="M89.1183 58.6221C84.6946 58.6221 80.9634 61.3036 79.8042 64.9671C79.5616 65.734 79.4316 66.5439 79.4316 67.3813C79.4316 72.2191 83.7687 76.1406 89.1183 76.1406C94.4681 76.1406 98.805 72.2191 98.805 67.3813C98.805 66.2567 98.5707 65.1817 98.1437 64.1937C96.7338 60.9323 93.2245 58.6221 89.1183 58.6221Z" fill="#E4F2F5" stroke="#2B2A29" stroke-width="0.156624" stroke-miterlimit="22.9256"/>
<path fill-rule="evenodd" clip-rule="evenodd" d="M44.3658 67.8068C44.3658 66.6315 44.0965 65.5118 43.6094 64.4937C42.1497 61.443 38.7354 59.3027 34.7562 59.3027C31.0452 59.3027 27.8257 61.1641 26.2245 63.8895C25.5358 65.0617 25.1465 66.3941 25.1465 67.8068C25.1465 72.5034 29.4488 76.3108 34.7562 76.3108C40.0635 76.3108 44.3658 72.5034 44.3658 67.8068Z" fill="#C7E4EA" stroke="#2B2A29" stroke-width="0.156624" stroke-miterlimit="22.9256"/>
<path fill-rule="evenodd" clip-rule="evenodd" d="M67.3516 44.4033C67.3624 44.4033 67.373 44.4033 67.3838 44.4033V45.383C67.373 45.383 67.3624 45.383 67.3516 45.383V44.4033Z" fill="#D7ECF0"/>
<path d="M64.6738 43.5273L64.8695 43.9188" stroke="#2B2A29" stroke-width="0.0783121" stroke-miterlimit="22.9256"/>
<path d="M64.6738 43.5277L68.1581 42.04L68.9411 43.9584L64.8695 43.9192" stroke="#2B2A29" stroke-width="0.0783121" stroke-miterlimit="22.9256"/>
<path fill-rule="evenodd" clip-rule="evenodd" d="M66.4081 42.7873L64.6738 43.5277L64.8695 43.9192L68.9411 43.9584L68.1581 42.04L66.4081 42.7873Z" fill="#686868" stroke="#686868" stroke-width="0.156624" stroke-miterlimit="22.9256"/>
<path fill-rule="evenodd" clip-rule="evenodd" d="M43.6094 64.4937C42.1497 61.443 38.7354 59.3027 34.7562 59.3027C31.0452 59.3027 27.8257 61.1641 26.2245 63.8895C25.5358 65.0617 25.1465 66.3941 25.1465 67.8068C25.1465 72.5034 29.4488 76.3108 34.7562 76.3108C40.0635 76.3108 44.3658 72.5034 44.3658 67.8068C44.3658 66.6315 44.0965 65.5118 43.6094 64.4937Z" fill="#8399B4" stroke="#2B2A29" stroke-width="0.156624" stroke-miterlimit="22.9256"/>
<path fill-rule="evenodd" clip-rule="evenodd" d="M89.1183 58.6221C84.6946 58.6221 80.9634 61.3036 79.8042 64.9671C79.5616 65.734 79.4316 66.5439 79.4316 67.3813C79.4316 72.2191 83.7687 76.1406 89.1183 76.1406C94.4681 76.1406 98.805 72.2191 98.805 67.3813C98.805 66.2567 98.5707 65.1817 98.1437 64.1937C96.7338 60.9323 93.2245 58.6221 89.1183 58.6221Z" fill="#8399B4" stroke="#2B2A29" stroke-width="0.156624" stroke-miterlimit="22.9256"/>
<path fill-rule="evenodd" clip-rule="evenodd" d="M44.3658 67.8068C44.3658 66.6315 44.0965 65.5118 43.6094 64.4937C42.1497 61.443 38.7354 59.3027 34.7562 59.3027C31.0452 59.3027 27.8257 61.1641 26.2245 63.8895C25.5358 65.0617 25.1465 66.3941 25.1465 67.8068C25.1465 72.5034 29.4488 76.3108 34.7562 76.3108C40.0635 76.3108 44.3658 72.5034 44.3658 67.8068Z" fill="#324B7A" stroke="#2B2A29" stroke-width="0.156624" stroke-miterlimit="22.9256"/>
<path fill-rule="evenodd" clip-rule="evenodd" d="M44.3658 67.8068C44.3658 66.6315 44.0965 65.5119 43.6094 64.4937C42.1497 61.443 38.7354 59.3027 34.7562 59.3027C31.0452 59.3027 27.8257 61.1641 26.2245 63.8895C25.5358 65.0617 25.1465 66.3941 25.1465 67.8068C25.1465 72.5034 29.4488 76.3108 34.7562 76.3108C40.0635 76.3108 44.3658 72.5034 44.3658 67.8068Z" fill="#C4D1DD" stroke="#686868" stroke-width="0.783121" stroke-miterlimit="22.9256"/>
<path fill-rule="evenodd" clip-rule="evenodd" d="M79.8042 64.9671C79.5616 65.734 79.4316 66.5439 79.4316 67.3813C79.4316 72.2191 83.7687 76.1406 89.1183 76.1406C94.4681 76.1406 98.805 72.2191 98.805 67.3813C98.805 66.2567 98.5707 65.1817 98.1437 64.1937C96.7338 60.9323 93.2245 58.6221 89.1183 58.6221C84.6946 58.6221 80.9634 61.3036 79.8042 64.9671Z" fill="#8399B4" stroke="#2B2A29" stroke-width="0.156624" stroke-miterlimit="22.9256"/>
<path fill-rule="evenodd" clip-rule="evenodd" d="M79.8042 64.9671C79.5616 65.734 79.4316 66.5439 79.4316 67.3813C79.4316 72.2191 83.7687 76.1406 89.1183 76.1406C94.4681 76.1406 98.805 72.2191 98.805 67.3813C98.805 66.2567 98.5707 65.1817 98.1437 64.1937C96.7338 60.9323 93.2245 58.6221 89.1183 58.6221C84.6946 58.6221 80.9634 61.3036 79.8042 64.9671Z" fill="#8399B4" stroke="#2B2A29" stroke-width="0.156624" stroke-miterlimit="22.9256"/>
<path fill-rule="evenodd" clip-rule="evenodd" d="M79.8042 64.9671C79.5616 65.734 79.4316 66.5439 79.4316 67.3813C79.4316 72.2191 83.7687 76.1406 89.1183 76.1406C94.4681 76.1406 98.805 72.2191 98.805 67.3813C98.805 66.2567 98.5707 65.1817 98.1437 64.1937C96.7338 60.9323 93.2245 58.6221 89.1183 58.6221C84.6946 58.6221 80.9634 61.3036 79.8042 64.9671Z" fill="#8399B4" stroke="#2B2A29" stroke-width="0.156624" stroke-miterlimit="22.9256"/>
<path fill-rule="evenodd" clip-rule="evenodd" d="M79.8042 64.9671C79.5616 65.734 79.4316 66.5439 79.4316 67.3813C79.4316 72.2191 83.7687 76.1406 89.1183 76.1406C94.4681 76.1406 98.805 72.2191 98.805 67.3813C98.805 66.2567 98.5707 65.1817 98.1437 64.1937C96.7338 60.9323 93.2245 58.6221 89.1183 58.6221C84.6946 58.6221 80.9634 61.3036 79.8042 64.9671Z" fill="#C4D1DD" stroke="white" stroke-width="0.156624" stroke-miterlimit="22.9256"/>
</svg>
