<svg width="28" height="27" viewBox="0 0 28 27" fill="none" xmlns="http://www.w3.org/2000/svg">
<g id="ri:whatsapp-fill">
<path id="Vector" d="M14.1153 2.24902C20.3286 2.24902 25.3652 7.28565 25.3652 13.499C25.3652 19.7124 20.3286 24.749 14.1153 24.749C12.1271 24.7522 10.174 24.2261 8.4565 23.2246L2.86975 24.749L4.39075 19.16C3.38848 17.442 2.86193 15.488 2.86525 13.499C2.86525 7.28565 7.90188 2.24902 14.1153 2.24902ZM10.2813 8.21152L10.0562 8.22052C9.91059 8.22939 9.76823 8.26766 9.63775 8.33302C9.51571 8.40213 9.40431 8.48853 9.307 8.58952C9.172 8.71665 9.0955 8.8269 9.01338 8.93377C8.59726 9.47479 8.37322 10.139 8.37663 10.8215C8.37888 11.3728 8.52288 11.9094 8.74788 12.4111C9.208 13.4259 9.96512 14.5003 10.9641 15.4959C11.2049 15.7355 11.4411 15.9763 11.6954 16.2001C12.9367 17.293 14.4159 18.0812 16.0154 18.5019L16.6544 18.5998C16.8625 18.611 17.0706 18.5953 17.2799 18.5851C17.6075 18.5682 17.9274 18.4795 18.217 18.3253C18.3643 18.2494 18.5081 18.1668 18.6479 18.0778C18.6479 18.0778 18.6963 18.0463 18.7885 17.9765C18.9404 17.864 19.0338 17.7841 19.1598 17.6525C19.2531 17.5558 19.3341 17.4421 19.396 17.3128C19.4837 17.1294 19.5715 16.7795 19.6075 16.4881C19.6345 16.2654 19.6266 16.1439 19.6232 16.0685C19.6187 15.9481 19.5186 15.8233 19.4095 15.7704L18.7548 15.4768C18.7548 15.4768 17.776 15.0504 17.1775 14.7781C17.1149 14.7508 17.0478 14.7352 16.9795 14.732C16.9025 14.7241 16.8248 14.7328 16.7514 14.7574C16.6781 14.7821 16.6108 14.8221 16.5542 14.8749C16.5486 14.8726 16.4732 14.9368 15.6599 15.9223C15.6132 15.985 15.5489 16.0324 15.4752 16.0585C15.4014 16.0845 15.3216 16.088 15.2459 16.0685C15.1726 16.0489 15.1008 16.0241 15.031 15.9943C14.8915 15.9358 14.8431 15.9133 14.7475 15.8728C14.1018 15.591 13.504 15.2103 12.9756 14.7444C12.8339 14.6206 12.7023 14.4856 12.5673 14.3551C12.1247 13.9313 11.7389 13.4518 11.4197 12.9286L11.3534 12.8218C11.3057 12.75 11.2672 12.6725 11.2386 12.5911C11.1959 12.4258 11.3073 12.293 11.3073 12.293C11.3073 12.293 11.5806 11.9938 11.7078 11.8318C11.8315 11.6743 11.9361 11.5213 12.0036 11.4121C12.1364 11.1984 12.178 10.979 12.1083 10.8091C11.7933 10.0396 11.467 9.27352 11.1317 8.51302C11.0654 8.36227 10.8685 8.25427 10.6896 8.2329C10.6289 8.22615 10.5681 8.2194 10.5074 8.2149C10.3563 8.20739 10.2049 8.2089 10.054 8.2194L10.2801 8.2104L10.2813 8.21152Z" fill="#8CA0B7"/>
</g>
</svg>
